<?xml version="1.0" encoding="utf-8"?>
<!-- Generator: Adobe Illustrator 24.0.2, SVG Export Plug-In . SVG Version: 6.00 Build 0)  -->
<svg version="1.1" id="Calque_1" xmlns="http://www.w3.org/2000/svg" xmlns:xlink="http://www.w3.org/1999/xlink" x="0px" y="0px"
	 viewBox="0 0 537 80" style="enable-background:new 0 0 537 80;" xml:space="preserve">
<style type="text/css">
	.st0{fill:#420468;}
	.st1{fill:#F9CA06;}
</style>
<g>
	<g>
		<g>
			<path class="st0" d="M42.66,25.95c2.32,2.83,3.47,7.12,3.47,12.88v17.45c0,2.05-0.65,3.66-1.94,4.85
				c-1.29,1.18-3.04,1.78-5.25,1.78c-2.21,0-3.96-0.59-5.25-1.78c-1.29-1.18-1.94-2.8-1.94-4.85v-16.8c0-2.37-0.42-4.09-1.25-5.17
				c-0.84-1.08-2.09-1.61-3.76-1.61c-2.15,0-3.86,0.69-5.13,2.06c-1.27,1.37-1.9,3.22-1.9,5.53v15.99c0,2.05-0.65,3.66-1.94,4.85
				c-1.29,1.18-3.04,1.78-5.25,1.78s-3.96-0.59-5.25-1.78c-1.29-1.18-1.94-2.8-1.94-4.85V28.33c0-1.88,0.67-3.43,2.02-4.64
				c1.35-1.21,3.1-1.82,5.25-1.82c2.05,0,3.68,0.56,4.89,1.7c1.21,1.13,1.82,2.61,1.82,4.44c1.4-2.05,3.2-3.61,5.41-4.68
				c2.21-1.08,4.66-1.61,7.35-1.61C36.82,21.71,40.35,23.12,42.66,25.95z"/>
			<path class="st0" d="M89.55,51.11c0.78,0.97,1.17,2.23,1.17,3.8c0,2.15-1.05,3.8-3.15,4.93c-1.83,0.92-4,1.68-6.5,2.3
				c-2.5,0.62-4.81,0.93-6.91,0.93c-4.42,0-8.26-0.83-11.55-2.5c-3.29-1.67-5.82-4.07-7.59-7.19c-1.78-3.12-2.66-6.78-2.66-10.98
				c0-3.98,0.85-7.55,2.54-10.7c1.7-3.15,4.07-5.6,7.11-7.35c3.04-1.75,6.47-2.62,10.3-2.62c3.72,0,6.97,0.81,9.77,2.42
				c2.8,1.61,4.97,3.9,6.5,6.86c1.54,2.96,2.3,6.44,2.3,10.42c0,1.24-0.28,2.19-0.85,2.87c-0.57,0.67-1.39,1.01-2.46,1.01H66.25
				c0.38,2.59,1.21,4.44,2.5,5.57c1.29,1.13,3.2,1.7,5.73,1.7c1.35,0,2.59-0.15,3.72-0.44c1.13-0.3,2.4-0.71,3.8-1.25
				c0.81-0.32,1.6-0.61,2.38-0.85c0.78-0.24,1.49-0.36,2.14-0.36C87.76,49.65,88.77,50.14,89.55,51.11z M68.19,33.22
				c-1.13,1.21-1.8,2.98-2.02,5.29h12.68c-0.32-4.74-2.37-7.11-6.14-7.11C70.82,31.4,69.32,32,68.19,33.22z"/>
			<path class="st0" d="M125.37,57.49c0,1.89-0.73,3.28-2.18,4.2c-1.45,0.91-3.53,1.29-6.22,1.13l-2.26-0.16
				c-4.85-0.38-8.52-1.84-11.02-4.4c-2.5-2.56-3.76-6.12-3.76-10.7v-14.3h-2.34c-4.31,0-6.46-1.78-6.46-5.33
				c0-3.5,2.15-5.25,6.46-5.25h2.34v-5.25c0-2.05,0.65-3.68,1.94-4.89c1.29-1.21,3.04-1.82,5.25-1.82c2.21,0,3.96,0.61,5.25,1.82
				c1.29,1.21,1.94,2.84,1.94,4.89v5.25h4.44c4.31,0,6.46,1.75,6.46,5.25c0,3.55-2.15,5.33-6.46,5.33h-4.44v15.51
				c0,1.02,0.31,1.89,0.93,2.58c0.62,0.7,1.41,1.08,2.38,1.13l2.34,0.16C123.56,52.86,125.37,54.47,125.37,57.49z"/>
			<path class="st0" d="M249.9,26.11c2.93,2.94,4.4,7.39,4.4,13.37v16.88c0,2.05-0.61,3.65-1.82,4.81c-1.21,1.16-2.9,1.74-5.05,1.74
				c-1.89,0-3.43-0.54-4.64-1.62c-1.21-1.08-1.87-2.53-1.98-4.36c-0.75,1.94-2.02,3.45-3.8,4.52c-1.78,1.08-3.9,1.61-6.38,1.61
				c-2.75,0-5.22-0.55-7.43-1.66c-2.21-1.1-3.94-2.64-5.21-4.6c-1.27-1.97-1.9-4.19-1.9-6.66c0-2.85,0.74-5.13,2.22-6.82
				c1.48-1.7,3.84-2.92,7.07-3.68c3.23-0.75,7.59-1.13,13.08-1.13h2.18v-0.97c0-1.88-0.43-3.24-1.29-4.08
				c-0.86-0.83-2.32-1.25-4.36-1.25c-2.21,0-5.44,0.75-9.69,2.26c-1.24,0.43-2.29,0.65-3.15,0.65c-1.35,0-2.42-0.48-3.23-1.45
				c-0.81-0.97-1.21-2.23-1.21-3.8c0-1.18,0.24-2.15,0.73-2.91c0.49-0.75,1.26-1.43,2.34-2.02c1.88-0.97,4.25-1.75,7.11-2.34
				c2.85-0.59,5.65-0.89,8.4-0.89C242.43,21.71,246.96,23.17,249.9,26.11z M238.79,51.39c1.24-1.37,1.86-3.14,1.86-5.29v-0.97h-1.29
				c-3.45,0-5.9,0.31-7.35,0.93c-1.45,0.62-2.18,1.66-2.18,3.11c0,1.24,0.39,2.26,1.17,3.07c0.78,0.81,1.79,1.21,3.03,1.21
				C235.96,53.45,237.55,52.76,238.79,51.39z"/>
			<path class="st0" d="M291.94,23.12c1.08,1,1.61,2.46,1.61,4.4c0,2.15-0.5,3.72-1.49,4.68c-1,0.97-2.79,1.59-5.37,1.86l-2.42,0.24
				c-2.69,0.32-4.62,1.17-5.78,2.54c-1.16,1.37-1.74,3.24-1.74,5.61v13.81c0,2.21-0.69,3.86-2.06,4.97
				c-1.37,1.1-3.08,1.66-5.13,1.66s-3.76-0.55-5.13-1.66c-1.37-1.1-2.06-2.76-2.06-4.97V28.33c0-2.05,0.69-3.63,2.06-4.77
				s3.03-1.7,4.97-1.7c1.99,0,3.59,0.54,4.81,1.61c1.21,1.08,1.82,2.59,1.82,4.52v1.54c0.86-2.37,2.28-4.2,4.24-5.49
				s4.02-1.99,6.18-2.1l1.13-0.08C289.4,21.71,290.86,22.12,291.94,23.12z"/>
			<path class="st0" d="M337.97,55.95c0,1.78-0.63,3.37-1.9,4.77c-1.27,1.4-2.79,2.1-4.56,2.1c-1.51,0-3.02-0.67-4.52-2.02
				l-16.39-15.59v10.9c0,2.21-0.69,3.88-2.06,5.01c-1.37,1.13-3.08,1.7-5.13,1.7s-3.76-0.57-5.13-1.7s-2.06-2.8-2.06-5.01V11.77
				c0-2.21,0.69-3.88,2.06-5.01c1.37-1.13,3.08-1.7,5.13-1.7s3.76,0.57,5.13,1.7c1.37,1.13,2.06,2.8,2.06,5.01v27.38l14.94-15.18
				c1.35-1.4,2.91-2.1,4.68-2.1c1.72,0,3.24,0.66,4.56,1.98s1.98,2.81,1.98,4.48c0,1.67-0.7,3.2-2.1,4.6l-8.8,8.72l10.01,9.61
				C337.27,52.61,337.97,54.17,337.97,55.95z"/>
			<path class="st0" d="M378.07,51.11c0.78,0.97,1.17,2.23,1.17,3.8c0,2.15-1.05,3.8-3.15,4.93c-1.83,0.92-4,1.68-6.5,2.3
				c-2.5,0.62-4.81,0.93-6.9,0.93c-4.42,0-8.27-0.83-11.55-2.5c-3.28-1.67-5.81-4.07-7.59-7.19c-1.78-3.12-2.66-6.78-2.66-10.98
				c0-3.98,0.85-7.55,2.54-10.7c1.7-3.15,4.07-5.6,7.11-7.35c3.04-1.75,6.47-2.62,10.3-2.62c3.72,0,6.97,0.81,9.77,2.42
				c2.8,1.61,4.97,3.9,6.5,6.86c1.54,2.96,2.3,6.44,2.3,10.42c0,1.24-0.28,2.19-0.85,2.87c-0.57,0.67-1.39,1.01-2.46,1.01h-21.32
				c0.38,2.59,1.21,4.44,2.5,5.57c1.29,1.13,3.2,1.7,5.73,1.7c1.35,0,2.59-0.15,3.72-0.44c1.13-0.3,2.4-0.71,3.8-1.25
				c0.81-0.32,1.6-0.61,2.38-0.85c0.78-0.24,1.49-0.36,2.14-0.36C376.28,49.65,377.29,50.14,378.07,51.11z M356.71,33.22
				c-1.13,1.21-1.8,2.98-2.02,5.29h12.68c-0.32-4.74-2.37-7.11-6.14-7.11C359.35,31.4,357.84,32,356.71,33.22z"/>
			<path class="st0" d="M413.89,57.49c0,1.89-0.73,3.28-2.18,4.2c-1.45,0.91-3.53,1.29-6.22,1.13l-2.26-0.16
				c-4.85-0.38-8.52-1.84-11.03-4.4c-2.5-2.56-3.76-6.12-3.76-10.7v-14.3h-2.34c-4.31,0-6.46-1.78-6.46-5.33
				c0-3.5,2.15-5.25,6.46-5.25h2.34v-5.25c0-2.05,0.65-3.68,1.94-4.89c1.29-1.21,3.04-1.82,5.25-1.82c2.21,0,3.96,0.61,5.25,1.82
				c1.29,1.21,1.94,2.84,1.94,4.89v5.25h4.44c4.31,0,6.46,1.75,6.46,5.25c0,3.55-2.15,5.33-6.46,5.33h-4.44v15.51
				c0,1.02,0.31,1.89,0.93,2.58c0.62,0.7,1.41,1.08,2.38,1.13l2.34,0.16C412.09,52.86,413.89,54.47,413.89,57.49z"/>
			<path class="st0" d="M419.1,14.32c-1.43-1.26-2.14-2.95-2.14-5.05c0-2.1,0.71-3.77,2.14-5.01c1.43-1.24,3.35-1.86,5.77-1.86
				c2.37,0,4.28,0.62,5.73,1.86c1.45,1.24,2.18,2.91,2.18,5.01c0,2.1-0.71,3.78-2.14,5.05c-1.43,1.27-3.35,1.9-5.78,1.9
				C422.45,16.21,420.53,15.58,419.1,14.32z M419.75,61.24c-1.37-1.1-2.06-2.76-2.06-4.97V28.49c0-2.21,0.69-3.86,2.06-4.97
				c1.37-1.1,3.08-1.66,5.13-1.66c2.05,0,3.76,0.55,5.13,1.66c1.37,1.1,2.06,2.76,2.06,4.97v27.78c0,2.21-0.69,3.86-2.06,4.97
				c-1.37,1.1-3.08,1.66-5.13,1.66C422.83,62.9,421.12,62.35,419.75,61.24z"/>
			<path class="st0" d="M477.7,25.95c2.31,2.83,3.47,7.12,3.47,12.88v17.45c0,2.05-0.65,3.66-1.94,4.85
				c-1.29,1.18-3.04,1.78-5.25,1.78c-2.21,0-3.96-0.59-5.25-1.78c-1.29-1.18-1.94-2.8-1.94-4.85v-16.8c0-2.37-0.42-4.09-1.25-5.17
				c-0.84-1.08-2.09-1.61-3.76-1.61c-2.15,0-3.86,0.69-5.13,2.06c-1.27,1.37-1.9,3.22-1.9,5.53v15.99c0,2.05-0.65,3.66-1.94,4.85
				c-1.29,1.18-3.04,1.78-5.25,1.78s-3.96-0.59-5.25-1.78c-1.29-1.18-1.94-2.8-1.94-4.85V28.33c0-1.88,0.67-3.43,2.02-4.64
				c1.35-1.21,3.1-1.82,5.25-1.82c2.05,0,3.68,0.56,4.89,1.7c1.21,1.13,1.82,2.61,1.82,4.44c1.4-2.05,3.2-3.61,5.41-4.68
				c2.21-1.08,4.66-1.61,7.35-1.61C471.85,21.71,475.38,23.12,477.7,25.95z"/>
			<path class="st0" d="M529.71,23.68c1.29,1.21,1.94,2.81,1.94,4.81v29.08c0,6.57-1.98,11.55-5.94,14.94
				c-3.96,3.39-9.76,5.09-17.41,5.09c-2.96,0-5.76-0.27-8.4-0.81c-2.64-0.54-4.87-1.32-6.7-2.34c-0.97-0.54-1.74-1.24-2.3-2.1
				c-0.57-0.86-0.85-1.83-0.85-2.91c0-1.56,0.39-2.83,1.17-3.8c0.78-0.97,1.79-1.45,3.03-1.45c0.97,0,2.72,0.4,5.25,1.21
				c1.67,0.54,3.15,0.96,4.44,1.25c1.29,0.3,2.61,0.44,3.96,0.44c3.28,0,5.69-0.69,7.23-2.06c1.54-1.37,2.3-3.54,2.3-6.5v-3.07
				c-1.18,1.78-2.88,3.19-5.09,4.24c-2.21,1.05-4.6,1.57-7.19,1.57c-3.45,0-6.52-0.81-9.21-2.42c-2.69-1.61-4.79-3.92-6.3-6.9
				c-1.51-2.99-2.26-6.45-2.26-10.38c0-3.93,0.75-7.4,2.26-10.42c1.51-3.02,3.61-5.34,6.3-6.99c2.69-1.64,5.76-2.46,9.21-2.46
				c2.64,0,5.06,0.54,7.27,1.61c2.21,1.08,3.9,2.56,5.09,4.44c0.11-1.83,0.79-3.27,2.06-4.32c1.26-1.05,2.92-1.57,4.97-1.57
				C526.7,21.87,528.42,22.47,529.71,23.68z M515.42,48.2c1.4-1.56,2.1-3.77,2.1-6.62c0-2.85-0.7-5.09-2.1-6.7
				c-1.4-1.62-3.37-2.42-5.9-2.42c-2.48,0-4.42,0.8-5.81,2.38c-1.4,1.59-2.1,3.84-2.1,6.74c0,2.8,0.71,4.99,2.14,6.58
				c1.43,1.59,3.35,2.38,5.77,2.38C512.05,50.54,514.01,49.76,515.42,48.2z"/>
		</g>
	</g>
	<path class="st1" d="M133.75,60.64c-1.48-1.51-2.22-3.36-2.22-5.57c0-2.21,0.74-4.07,2.22-5.57c1.48-1.51,3.35-2.26,5.61-2.26
		c2.21,0,4.05,0.75,5.53,2.26c1.48,1.51,2.22,3.37,2.22,5.57c0,2.21-0.74,4.07-2.22,5.57c-1.48,1.51-3.33,2.26-5.53,2.26
		C137.1,62.9,135.23,62.14,133.75,60.64z"/>
	<path class="st0" d="M206.16,25.62c-2.37-2.61-5.73-3.92-10.1-3.92c-2.85,0-5.41,0.63-7.67,1.9c-2.26,1.27-4.07,2.98-5.41,5.13
		c-1.94-4.68-5.79-7.03-11.55-7.03c-5.44,0-9.48,1.99-12.12,5.98c-0.05-1.88-0.71-3.32-1.98-4.32c-1.27-0.99-2.84-1.49-4.72-1.49
		c-1.99,0-3.7,0.55-5.13,1.66c-1.43,1.1-2.14,2.71-2.14,4.81V48.1c0.67,0.36,1.28,0.82,1.85,1.39c1.48,1.51,2.22,3.37,2.22,5.57
		c0,2.21-0.74,4.07-2.22,5.57c-0.06,0.07-0.13,0.12-0.2,0.18c0.14,0.14,0.25,0.3,0.41,0.42c1.37,1.1,3.08,1.66,5.13,1.66
		c2.04,0,3.76-0.55,5.13-1.66c1.37-1.1,2.06-2.76,2.06-4.97V40.28c0-2.37,0.55-4.23,1.66-5.57c1.1-1.35,2.6-2.02,4.48-2.02
		c1.45,0,2.56,0.43,3.31,1.29c0.75,0.86,1.13,2.37,1.13,4.52v17.77c0,2.21,0.69,3.86,2.06,4.97c1.37,1.1,3.08,1.66,5.13,1.66
		c2.1,0,3.82-0.55,5.17-1.66c1.35-1.1,2.02-2.76,2.02-4.97V40.28c0-2.37,0.56-4.23,1.7-5.57c1.13-1.35,2.64-2.02,4.52-2.02
		c1.45,0,2.56,0.43,3.31,1.29c0.75,0.86,1.13,2.37,1.13,4.52v17.77c0,2.21,0.69,3.86,2.06,4.97c1.37,1.1,3.08,1.66,5.13,1.66
		c2.05,0,3.76-0.55,5.13-1.66c1.37-1.1,2.06-2.76,2.06-4.97V38.83C209.72,32.64,208.53,28.24,206.16,25.62z"/>
</g>
</svg>
